<?xml version="1.0" encoding="utf-8"?>
<!-- Generator: Adobe Illustrator 24.2.3, SVG Export Plug-In . SVG Version: 6.00 Build 0)  -->
<svg version="1.1" id="Layer_1" xmlns="http://www.w3.org/2000/svg" xmlns:xlink="http://www.w3.org/1999/xlink" x="0px" y="0px"
	 viewBox="0 0 431.3 571.2" style="enable-background:new 0 0 431.3 571.2;" xml:space="preserve">
<style type="text/css">
	.st0{fill:#F2F2F2;}
	.st1{fill:#FF0005;}
	.st2{fill:#FFFFFF;}
	.st3{fill:#FFB8B8;}
	.st4{fill:#3F3D56;}
	.st5{fill:#2F2E41;}
	.st6{fill:#CCCCCC;}
</style>
<path class="st0" d="M316.1,220.2H33c-18.2,0-33-14.8-33-33V33C0,14.8,14.8,0,33,0h283.1c18.2,0,33,14.8,33,33v154.2
	C349.1,205.4,334.3,220.1,316.1,220.2z"/>
<circle class="st1" cx="174.6" cy="110.1" r="53.6"/>
<path class="st2" d="M164.2,135.2c-0.8,0-1.5-0.2-2.2-0.6c-1.4-0.8-2.3-2.3-2.3-3.9V93.5c0-2.5,2-4.5,4.5-4.5c0.9,0,1.7,0.2,2.4,0.7
	l35.3,18.6c2.1,1.3,2.7,4.1,1.4,6.2c-0.4,0.6-0.8,1-1.4,1.4l-35.3,18.6C165.9,134.9,165.1,135.2,164.2,135.2z"/>
<path class="st3" d="M345.7,311.9c-3.9-2.7-4.9-8-2.3-11.9c0.3-0.4,0.6-0.8,1-1.2l-13.6-27.3l15.7,1.9L357,299
	c3.2,3.5,2.9,9-0.7,12.2C353.3,313.9,348.9,314.2,345.7,311.9L345.7,311.9z"/>
<path class="st4" d="M290.7,218.1l10.3-1.4c0,0,1,15.5,5.9,17.9s3.3,2.7,3.8,5.2c1.1,3.5,3.7,6.4,7.1,8c3.9,1.7,21.6,44.8,21.6,44.8
	l14.9-3.5c-1.4-3.7-2.3-7.6-2.7-11.6c-0.5-6-7.3-20.2-9.6-22.3c-2.2-2.1-1.4-5.8-2.5-10.8c-1.2-5-0.4-0.4-2.3-8.7
	s-23.7-58-24.6-65.7S301,157.8,301,157.8l-8.3,1.9L290.7,218.1z"/>
<polygon class="st3" points="250.3,243.8 233.7,321.9 324.5,315.1 297.3,238.8 "/>
<path class="st2" d="M358.9,571.1h-1.6c-0.5-0.8-1-1.6-1.6-2.4c-0.9-1.2-1.7-2.4-2.7-3.5c-0.8-1-1.6-2-2.4-3s-1.6-2.1-2.4-3.1l0.9-1
	c0.2,0.2,0.3,0.4,0.5,0.6c2.6,3.4,5.3,6.6,7.7,10.1C357.9,569.5,358.4,570.3,358.9,571.1z"/>
<path class="st2" d="M337.5,421.8c0.3,0.3,0.5,0.7,0.8,1c2,2.5,3.8,5.1,5.5,7.8c3.1,4.7,5.8,9.7,8.2,14.8c0.2,0.4,0.4,0.8,0.6,1.2
	c5.1,11.2,8.4,23.2,9.8,35.4c0,0.1,0,0.2,0,0.3c0.3,2.9,0.5,5.7,0.6,8.6c0.3,5.4-0.2,10.9-1.6,16.1c-0.2,0.7-0.4,1.4-0.7,2
	c-0.6,1.6-1.4,3.2-2.3,4.7c-0.6,1.1-1.4,2.1-2.1,3.1c-0.5,0.6-1,1.2-1.5,1.8c-0.3,0.3-0.6,0.7-0.9,1s-0.5,0.5-0.8,0.8
	c-2.7,2.6-5.7,5-8.1,7.9l0.5,1.5c2.3-3,5.4-5.5,8.1-8c1.7-1.6,3.3-3.4,4.7-5.3c0.2-0.3,0.4-0.5,0.5-0.8c0.9-1.4,1.7-2.8,2.4-4.3
	c0.3-0.8,0.7-1.5,0.9-2.3c1.6-5.2,2.4-10.6,2.2-16c0-3.5-0.2-6.9-0.6-10.4c0-0.4-0.1-0.9-0.2-1.3c-1-8.2-2.9-16.3-5.5-24.1
	c-3.4-9.9-8-19.4-13.8-28.2c-1.7-2.5-3.4-5-5.3-7.3c-0.2-0.3-0.5-0.7-0.8-1C337.9,420.1,336.9,421.1,337.5,421.8z"/>
<path class="st2" d="M355.3,519c-7.2-4.9-12.3-12.4-14.2-20.9c-0.2-0.8-1.5-0.5-1.3,0.3c2,8.9,7.3,16.6,14.9,21.7
	C355.3,520.6,356,519.5,355.3,519z"/>
<path class="st2" d="M352.4,445.3c-3.2,1.3-6.8,0.9-9.6-1.1c-0.7-0.5-1.4,0.7-0.7,1.2c3.1,2.1,7.1,2.6,10.6,1.2
	c0.4-0.1,0.6-0.5,0.5-0.8C353.1,445.4,352.8,445.2,352.4,445.3L352.4,445.3z"/>
<polygon class="st3" points="263,550.6 252.8,550.6 247.9,511.2 263,511.2 "/>
<path class="st5" d="M268.5,570h-7.2l-1.3-6.8l-3.3,6.8h-19.2c-2.4,0-4.3-1.9-4.3-4.3c0-1.4,0.7-2.7,1.9-3.6l15.3-10.6v-6.9l16.1,1
	L268.5,570z"/>
<polygon class="st3" points="359.4,545.5 349.4,547.7 336.3,510.2 351.1,507.1 "/>
<path class="st5" d="M368.9,563.3l-7.1,1.5l-2.7-6.4l-1.8,7.4l-18.8,4.1c-2.3,0.5-4.6-1-5.1-3.3c-0.3-1.4,0.1-2.8,1.1-3.9l12.7-13.6
	l-1.5-6.8l16-2.5L368.9,563.3z"/>
<path class="st6" d="M431.3,570c0,0.7-0.5,1.2-1.2,1.2l0,0H149.8c-0.7,0-1.2-0.5-1.2-1.2s0.5-1.2,1.2-1.2h280.3
	C430.7,568.8,431.3,569.3,431.3,570L431.3,570z"/>
<path class="st5" d="M231.4,374.8c7.2,39.3,4.9,14.3,4.9,14.3s-5.4,6.3-1.8,9.8s0,10.7,0,10.7l12.8,104.1l2,9h14l1-12l6.4-58.2
	c0,0,3.6-7.2,1.8-9c-1.8-1.8,1.8-12.5,1.8-12.5l4.5-85l16.7,52c0,0-2.7,3.6,0,6.3s19,57.1,19,57.1l19.8,47.3l1,1l5,13l13-6
	l-7.7-66.6l-0.3-1.4l-0.4-1.5c0,0,1.8-4.5-0.9-7.2c-1.6-1.7-2.3-4-1.8-6.3c0.1-0.1,0.2-0.2,0.2-0.3c0.3-0.4,0.5-0.9,0.6-1.5
	c0.2-1.1,0-2.7-1.8-4.5c-0.5-0.5-0.9-1.2-1.3-1.8c-2.7-5.2-4.1-16.1-4.1-16.1s-2.4-86.4-10.3-99.6c-0.4-0.7-18.9-48-19.3-48.3
	c-8.9-5.4-61,2-61,2s-15.9,45.4-16,46.6C228.2,317.1,225.3,341.4,231.4,374.8z"/>
<path class="st3" d="M190.6,120.5c-2.6,4-1.4,9.3,2.5,11.8c0.4,0.3,0.9,0.5,1.3,0.7l-1.9,30.4l13.7-7.9l-0.3-27.6
	c1.5-4.5-0.8-9.4-5.3-10.9C196.9,115.7,192.8,117.1,190.6,120.5L190.6,120.5z"/>
<path class="st4" d="M243.7,169.8c0,0,7.4-11,21.8-25.4c7.7-2.6,21-1.1,25.6,0c21.3,28.1,22.6,26.2,28.2,42c1.4,4.1,2.2,8,1.5,11.2
	c-2.6,12.8-20.5,44.3-19.6,47.7s6.8,7.7,0.9,7.7s-55.4-5.5-53.7-8.1C250,242.3,243.7,169.8,243.7,169.8z"/>
<circle class="st3" cx="269.7" cy="108.8" r="24.7"/>
<path class="st4" d="M274,161.5c0,0-20.4-18.1-46.3,18.6l-19.8,9.5l-0.6-22.8l3.5-4.6l-1.5-24.4L190,141l-1.4,15.9l-3.3,6.9l2.2,5.8
	l-2.3,25.2l1.1,8.9c0,0,1.4,11.4,9.3,16.2c2.1,1.3,4.4,2.2,6.8,2.8c4.7,1.1,10.4,0.8,17.2-1.9c14.1-5.5,27.8-11.9,41.1-19L274,161.5
	z"/>
<path class="st5" d="M324.9,161.7c5.2-1.9,10.4-3.7,15.7-5.6c-0.9-1.5-2-2.9-3.4-4c-5-4.1-11.8-4.9-18.1-6.3
	c-6.3-1.4-13.2-4.3-15.5-10.3c-2.4-6.3,1.1-13.1,3.1-19.5c2.8-8.9,2.8-18.9-1-27.5S294.2,73,285.1,71s-19.5,1.3-25.1,8.8
	c-7.5-2.2-15.5,1.5-18.6,8.6c-1.3,3.3-1.3,7.2,0.6,10.2s6.1,4.5,9.3,2.8l-1.8-4.6c5.6,1.9,9.3,12.1,8.5,18s-4.2,11-7.7,15.9
	c-3.5,4.8-7.2,9.7-8.7,15.4c-2.2,8.3,0.8,17.3,6.2,23.9s13,11.1,20.9,14.4c5.9,2.5,12,4.4,18.3,5.6c-1.1-2.2-2.2-4.4-3.3-6.5l13.3,8
	c2.6,0.3,5.2,0.4,7.8,0.5c7.5,0.1,15.2-0.7,22.1-3.7s13-8.5,15.5-15.6c0.8-2.3,1.2-4.7,1.1-7.2C337.1,164.3,331,163,324.9,161.7z"/>
</svg>
