<?xml version="1.0" encoding="utf-8"?>
<!-- Generator: Adobe Illustrator 24.2.3, SVG Export Plug-In . SVG Version: 6.00 Build 0)  -->
<svg version="1.1" id="Layer_1" xmlns="http://www.w3.org/2000/svg" xmlns:xlink="http://www.w3.org/1999/xlink" x="0px" y="0px"
	 viewBox="0 0 693.4 594.7" style="enable-background:new 0 0 693.4 594.7;" xml:space="preserve">
<style type="text/css">
	.st0{fill:#FFB6B6;}
	.st1{fill:#3F3D56;}
	.st2{fill:#2F2E41;}
	.st3{fill:#F2F2F2;}
	.st4{fill:#FF0000;}
	.st5{fill:#FFFFFF;}
	.st6{fill:#CCCCCC;}
</style>
<path class="st0" d="M515.2,341.8c2.3,30.3,1.8,58.7-3.7,83.6l80.9-0.1l36.6-25.5c-10-33.6-16.8-39.3-9.3-62.7L515.2,341.8z"/>
<path class="st1" d="M516.2,340.2c2.3,19.8-6.3,30.3-11.8,46.6l0,0c16-10.2,43.4-9.7,62-5.7l58,12.7c-10-21.9-11.3-41.3-3.8-56.6
	L516.2,340.2L516.2,340.2z"/>
<path class="st2" d="M627.1,390.4l26.7,66.1c8.7,21.4,12.2,44.6,10.4,67.6l-5.6,70.6h-80.3l-2.7-44c0,0-5.1,17.9-12.6,44h-88.3
	c7.4-48.2,37.5-191.7,37.5-191.7c0.1,0,3,0.3,3,0.3c2,2,14.3,6,43,6c25,0,63.1-16,67.8-18.4C626.8,390.6,627.1,390.4,627.1,390.4
	L627.1,390.4z"/>
<g>
	<path class="st3" d="M57.7,0c-7.1,0-12.9,3.6-12.9,8s5.8,8,12.9,8h291.7c7.1,0,12.9-3.6,12.9-8s-5.8-8-12.9-8
		C349.5,0,57.7,0,57.7,0z"/>
	<path class="st3" d="M52.8,158.9c-4.4,0-8,3.6-8,8s3.6,8,8,8h180.3c4.4,0,8-3.6,8-8s-3.6-8-8-8H52.8z"/>
	<path class="st3" d="M52.8,53c-4.4,0-8,3.6-8,8s3.6,8,8,8h301.6c4.4,0,8-3.6,8-8s-3.6-8-8-8H52.8z"/>
	<path class="st3" d="M52.8,105.9c-4.4,0-8,3.6-8,8s3.6,8,8,8h301.6c4.4,0,8-3.6,8-8s-3.6-8-8-8H52.8z"/>
	<circle class="st3" cx="6" cy="8" r="6"/>
	<circle class="st3" cx="6" cy="166.9" r="6"/>
	<circle class="st3" cx="6" cy="61" r="6"/>
	<circle class="st3" cx="6" cy="114" r="6"/>
</g>
<path class="st0" d="M681.1,349.1l-27.9-103.4c-2.5-9.1-11.8-14.5-21-12.2l0,0C622.6,236,617,246,620,255.4l32.3,106.5l16.9,65.6
	c-4.7,3.6-7,9.7-5.4,15.7c2.1,8.1,10.3,12.9,18.3,10.9s12.9-10.3,10.9-18.3c-0.8-2.9-2.3-5.5-4.4-7.4L681.1,349.1L681.1,349.1z"/>
<path class="st0" d="M446.1,326.8l84.9-65.3c7.5-5.8,8.9-16.5,3.3-24l0,0c-5.9-7.9-17.3-9.3-24.9-2.9l-86.1,70.6l-54.1,40.7
	c-5.1-2.9-11.6-2.8-16.6,1c-6.7,5-8,14.4-3,21.1s14.4,8,21.1,3c2.4-1.8,4.1-4.2,5.1-6.9L446.1,326.8z"/>
<path class="st4" d="M589.7,184.1c-14.8,2.9-29.6,5.8-44.3,8.7c-4.6,11.5-9.2,13.1-13.7,24.6l-8-0.4c-8.3-0.5-45.5,32.7-43,40.8v44
	c12.6-0.5,23.2-20.7,23-37c0,0-18.2,27,7.2,42.2c3,16.3,4.5,38.6-1.5,63.5c-1.4,5.9-3.1,11.3-4.9,16.3c8.6-5,29.3-15.5,57.3-14.6
	c35.7,1.2,59.5,20.3,66.5,26.4c5-3.8,7-12.1-2-19.2c-8.5-6.7-6.3-36.3-4-45.6c2.3-9.3,17-30.7,6.3-47.4c0,0,11.9,47.3,10,50.9
	c-1.9,3.6,2,1.1,3.1,1.6c14.1,4.6,25.7,0.4,36-8c0.7-1.9,7.1-8.7,2.6-6.8s-4.5-1.9,0.5-2.5s-0.6-3.1-0.9-4.9
	c-0.6-3.2-2.1-6.4-7.1-4.7c-0.7-8.3-2-17.7-4.3-27.9c-1.9-8.4-4.1-16.1-6.5-22.8c-5.8-15.8-11.4-26.8-13.2-28.7
	c-1.2-1.3-2.6-2.6-2.6-2.6s-1.4-1.3-2.7-2.5c-2-1.8-14.3-6.9-31.7-11.9h-2.1C603,201.7,596.3,197.9,589.7,184.1z"/>
<path class="st2" d="M599,171.8c-28.4,7.4-57.8,10.5-69.8,26.7c0,0,14.5-27.2-0.4-27.1c-25,0.2,2.6-45.9,11.9-51.5
	c15.5-9.3,52.2-2.9,52.2-2.9l18.3,22.9L599,171.8L599,171.8z"/>
<circle class="st0" cx="568.7" cy="138.8" r="40.3"/>
<path class="st2" d="M588,130.1l-1.2,6.9l-27.4-4.7c1-2.6,1-5.5-0.3-8c-0.5,2.7-1.6,5.2-3.3,7.4c-16.7,2-17,5-27.1-1.5
	c-3.4-0.6-5.6-3.8-5.1-7.2l0,0c3.6-21.1,10.4-41.4,31.6-38.3c11,1.7,20.2,7.7,26.2,16.1C587.2,109.1,589.9,119.5,588,130.1z"/>
<path class="st2" d="M571.5,152.7c3.8-22-11-42.8-32.9-46.6c-2.7-0.5-5.4-0.6-8-0.6c3.8-4.3,9.1-7.3,15-8.1l33.3-0.5
	c15.2,2.6,41,2.8,47.4,15.6c6,11.8-5,25.4,0,37.6c5.4,13.4,1.5,24.9-3.8,30.3c-6.2,6.2-16.5,13.8-25.1,12.9c0.7-2.8,0.4-5.8-0.9-8.3
	c-0.5,2.7-1.5,5.4-3,7.7l-61.7,17.7c5.9-2,13.6-10.1,20.7-20c4.2-5.8,14.1-4.4,11.4-18.4S570.7,157.4,571.5,152.7L571.5,152.7z"/>
<path class="st5" d="M458,361.5H205c-12.7,0-23-10.3-23-23v-181c0-12.7,10.3-23,23-23h253c12.7,0,23,10.3,23,23v181
	C481,351.1,470.7,361.5,458,361.5L458,361.5z"/>
<path class="st1" d="M458,361.5H205c-12.7,0-23-10.3-23-23v-181c0-12.7,10.3-23,23-23h253c12.7,0,23,10.3,23,23v181
	C481,351.1,470.7,361.5,458,361.5L458,361.5z M318.9,136.5c-74.5,0-134.9,60.4-134.9,134.9v67.1c0,11.6,9.4,21,21,21h253
	c11.6,0,21-9.4,21-21v-181c0-11.6-9.4-21-21-21H318.9L318.9,136.5z"/>
<g>
	<g>
		<path class="st6" d="M268.9,295.2h-40c-2.2,0-4-1.8-4-4s1.8-4,4-4h40c2.2,0,4,1.8,4,4S271.1,295.2,268.9,295.2z"/>
		<path class="st6" d="M355.9,324.5h-127c-2.2,0-4-1.8-4-4s1.8-4,4-4h127c2.2,0,4,1.8,4,4S358.1,324.5,355.9,324.5z"/>
	</g>
	<circle class="st4" cx="375.1" cy="234.5" r="63"/>
	<path class="st5" d="M362.2,210.4c-0.8,0-1.7,0.2-2.4,0.7c-1.4,0.8-2.2,2.3-2.2,4v38.8c0,1.6,0.8,3.1,2.2,4
		c1.4,0.8,3.1,0.9,4.5,0.2l37.9-19.4c1.6-0.8,2.5-2.4,2.5-4.1s-0.9-3.3-2.5-4.1l-37.9-19.6C363.6,210.6,362.9,210.4,362.2,210.4
		L362.2,210.4z"/>
</g>
</svg>
