  <svg
              xmlns="http://www.w3.org/2000/svg"
              className="w-12 h-12 mx-auto"
              viewBox="0 0 24 24"
              fill="none"
              stroke="white"
              strokeWidth="2"
              strokeLinecap="round"
              strokeLinejoin="round"
            >
              <path d="M20.29 8.62a12.07 12.07 0 01-.15 2.71c-.44 2.4-1.68 4.75-4.13 6.6-1.86 1.39-4.02 2.07-6.16 2.07-3.74 0-7.27-2.57-9.55-6.52C1.09 9.78 3.42 6.13 7.22 5.14 10.01 4.42 12.56 6 15 7.68c.48-.26.92-.52 1.34-.74.45-.23.9-.46 1.39-.63a12.04 12.04 0 012.56-.69zM12 10.9a2 2 0 110-4 2 2 0 010 4z" />
            </svg>